<svg xmlns="http://www.w3.org/2000/svg" xmlns:xlink="http://www.w3.org/1999/xlink" width="1600" zoomAndPan="magnify" viewBox="0 0 1200 225" height="300" preserveAspectRatio="xMidYMid meet" version="1.0"><defs><g/><clipPath id="1c997b8fff"><path d="M 669.488281 25.035156 L 1177.5 25.035156 L 1177.5 212.921875 L 669.488281 212.921875 Z M 669.488281 25.035156 " clip-rule="nonzero"/></clipPath></defs><g clip-path="url(#1c997b8fff)"><path fill="#000000" d="M 669.488281 25.035156 L 1177.375 25.035156 L 1177.375 212.921875 L 669.488281 212.921875 Z M 669.488281 25.035156 " fill-opacity="1" fill-rule="nonzero"/></g><path stroke-linecap="butt" transform="matrix(0.676635, 0, 0, 0.676635, 689.326075, -3.972511)" fill="none" stroke-linejoin="miter" d="M 103.883327 121.516758 C 115.775815 121.516758 126.565649 124.241639 136.25283 129.685627 C 145.986196 135.123842 153.606624 142.790455 159.131435 152.67392 C 164.685111 162.557385 167.467722 174.057305 167.467722 187.185225 C 167.467722 200.313145 164.685111 211.813065 159.131435 221.69653 C 153.606624 231.579995 145.986196 239.263927 136.25283 244.748327 C 126.565649 250.186542 115.775815 252.911422 103.883327 252.911422 C 86.356341 252.911422 73.003272 247.369292 63.812573 236.290805 L 63.812573 251.000542 L 28.487268 251.000542 L 28.487268 75.020597 L 65.492531 75.020597 L 65.492531 136.919261 C 74.83333 126.654774 87.632186 121.516758 103.883327 121.516758 Z M 97.515651 222.51053 C 107.012322 222.51053 114.788623 219.323805 120.850327 212.956129 C 126.952443 206.548041 130.000615 197.95774 130.000615 187.185225 C 130.000615 176.453121 126.952443 167.885912 120.850327 161.472051 C 114.788623 155.063963 107.012322 151.859919 97.515651 151.859919 C 88.01898 151.859919 80.219587 155.063963 74.117471 161.472051 C 68.06154 167.885912 65.030687 176.453121 65.030687 187.185225 C 65.030687 197.95774 68.06154 206.548041 74.117471 212.956129 C 80.219587 219.323805 88.01898 222.51053 97.515651 222.51053 Z M 192.14752 123.369908 L 229.152783 123.369908 L 229.152783 251.000542 L 192.14752 251.000542 Z M 210.621286 105.594681 C 203.826404 105.594681 198.284274 103.62607 194.000669 99.688848 C 189.757476 95.711216 187.632993 90.809894 187.632993 84.979112 C 187.632993 79.107918 189.757476 74.206597 194.000669 70.269375 C 198.284274 66.291742 203.826404 64.305813 210.621286 64.305813 C 217.416168 64.305813 222.952525 66.216693 227.241903 70.038453 C 231.525508 73.819802 233.66731 78.571024 233.66731 84.286346 C 233.66731 90.4231 231.525508 95.514932 227.241903 99.573387 C 222.952525 103.585658 217.416168 105.594681 210.621286 105.594681 Z M 395.16844 123.369908 L 395.16844 229.634476 C 395.16844 253.067294 389.066324 270.455727 376.867865 281.805547 C 364.704045 293.195779 346.928817 298.888008 323.536411 298.888008 C 311.216718 298.888008 299.520514 297.381242 288.442027 294.373482 C 277.363541 291.40036 268.195934 287.059025 260.933435 281.343703 L 275.643171 254.822302 C 281.012109 259.221368 287.806992 262.714064 296.027818 265.300392 C 304.248644 267.92713 312.475243 269.243386 320.696069 269.243386 C 333.512245 269.243386 342.951185 266.345314 349.012889 260.554943 C 355.115005 254.804983 358.163177 246.076128 358.163177 234.379925 L 358.163177 228.935937 C 348.510634 239.55258 335.076742 244.863788 317.861501 244.863788 C 306.159524 244.863788 295.450513 242.294779 285.72292 237.162536 C 275.989554 231.984108 268.270984 224.750474 262.555662 215.444314 C 256.880752 206.103516 254.046183 195.34832 254.046183 183.190273 C 254.046183 170.991814 256.880752 160.236618 262.555662 150.936231 C 268.270984 141.595433 275.989554 134.356026 285.72292 129.218009 C 295.450513 124.085766 306.159524 121.516758 317.861501 121.516758 C 336.352586 121.516758 350.421514 127.595782 360.074057 139.759602 L 360.074057 123.369908 Z M 325.210596 214.462896 C 335.019011 214.462896 343.032007 211.582143 349.243811 205.832183 C 355.5018 200.041812 358.625021 192.496433 358.625021 183.190273 C 358.625021 173.849475 355.5018 166.298323 349.243811 160.548363 C 343.032007 154.757992 335.019011 151.859919 325.210596 151.859919 C 315.407953 151.859919 307.337227 154.757992 301.009962 160.548363 C 294.676924 166.298323 291.513291 173.849475 291.513291 183.190273 C 291.513291 192.496433 294.676924 200.041812 301.009962 205.832183 C 307.337227 211.582143 315.407953 214.462896 325.210596 214.462896 Z M 561.195643 123.369908 L 561.195643 229.634476 C 561.195643 253.067294 555.0993 270.455727 542.900841 281.805547 C 530.737021 293.195779 512.961794 298.888008 489.563614 298.888008 C 477.249694 298.888008 465.55349 297.381242 454.475004 294.373482 C 443.390744 291.40036 434.223137 287.059025 426.966411 281.343703 L 441.676147 254.822302 C 447.039313 259.221368 453.834195 262.714064 462.060794 265.300392 C 470.28162 267.92713 478.502446 269.243386 486.729045 269.243386 C 499.545221 269.243386 508.984161 266.345314 515.045865 260.554943 C 521.142208 254.804983 524.196153 246.076128 524.196153 234.379925 L 524.196153 228.935937 C 514.54361 239.55258 501.109718 244.863788 483.888704 244.863788 C 472.1925 244.863788 461.477716 242.294779 451.750123 237.162536 C 442.02253 231.984108 434.30396 224.750474 428.588638 215.444314 C 422.913728 206.103516 420.073387 195.34832 420.073387 183.190273 C 420.073387 170.991814 422.913728 160.236618 428.588638 150.936231 C 434.30396 141.595433 442.02253 134.356026 451.750123 129.218009 C 461.477716 124.085766 472.1925 121.516758 483.888704 121.516758 C 502.379789 121.516758 516.45449 127.595782 526.107033 139.759602 L 526.107033 123.369908 Z M 491.243572 214.462896 C 501.051987 214.462896 509.05921 211.582143 515.276787 205.832183 C 521.529003 200.041812 524.657997 192.496433 524.657997 183.190273 C 524.657997 173.849475 521.529003 166.298323 515.276787 160.548363 C 509.05921 154.757992 501.051987 151.859919 491.243572 151.859919 C 481.44093 151.859919 473.370203 154.757992 467.037165 160.548363 C 460.7099 166.298323 457.540494 173.849475 457.540494 183.190273 C 457.540494 192.496433 460.7099 200.041812 467.037165 205.832183 C 473.370203 211.582143 481.44093 214.462896 491.243572 214.462896 Z M 630.928339 140.221447 C 635.367816 134.044281 641.331378 129.391201 648.819027 126.26798 C 656.347087 123.098574 665.018211 121.516758 674.820853 121.516758 L 674.820853 155.623949 C 670.693121 155.317978 667.933602 155.162105 666.542296 155.162105 C 655.925654 155.162105 647.606686 158.135227 641.585393 164.081471 C 635.598738 169.987303 632.608297 178.883576 632.608297 190.776063 L 632.608297 251.000542 L 595.603033 251.000542 L 595.603033 123.369908 L 630.928339 123.369908 Z M 630.928339 140.221447 " stroke="#ffffff" stroke-width="8.894737" stroke-opacity="1" stroke-miterlimit="4"/><g fill="#545454" fill-opacity="1"><g transform="translate(50.264837, 151.557467)"><g><path d="M 37.828125 -73.234375 C 43.066406 -73.234375 47.546875 -72.273438 51.265625 -70.359375 C 54.992188 -68.441406 57.804688 -65.753906 59.703125 -62.296875 C 61.609375 -58.835938 62.5625 -54.820312 62.5625 -50.25 C 62.5625 -45.664062 61.609375 -41.65625 59.703125 -38.21875 C 57.804688 -34.78125 54.992188 -32.097656 51.265625 -30.171875 C 47.546875 -28.253906 43.066406 -27.296875 37.828125 -27.296875 L 24 -27.296875 L 24 0 L 9.515625 0 L 9.515625 -73.234375 Z M 35.921875 -38.765625 C 43.960938 -38.765625 47.984375 -42.59375 47.984375 -50.25 C 47.984375 -57.925781 43.960938 -61.765625 35.921875 -61.765625 L 24 -61.765625 L 24 -38.765625 Z M 35.921875 -38.765625 "/></g></g></g><g fill="#545454" fill-opacity="1"><g transform="translate(114.288835, 151.557467)"><g><path d="M 32.109375 1.046875 C 26.703125 1.046875 21.953125 -0.0625 17.859375 -2.28125 C 13.765625 -4.5 10.585938 -7.753906 8.328125 -12.046875 C 6.078125 -16.335938 4.953125 -21.523438 4.953125 -27.609375 C 4.953125 -33.679688 6.078125 -38.867188 8.328125 -43.171875 C 10.585938 -47.484375 13.765625 -50.75 17.859375 -52.96875 C 21.953125 -55.195312 26.703125 -56.3125 32.109375 -56.3125 C 37.515625 -56.3125 42.265625 -55.195312 46.359375 -52.96875 C 50.453125 -50.75 53.632812 -47.484375 55.90625 -43.171875 C 58.175781 -38.867188 59.3125 -33.679688 59.3125 -27.609375 C 59.3125 -21.523438 58.175781 -16.335938 55.90625 -12.046875 C 53.632812 -7.753906 50.453125 -4.5 46.359375 -2.28125 C 42.265625 -0.0625 37.515625 1.046875 32.109375 1.046875 Z M 32.109375 -10.71875 C 40.691406 -10.71875 44.984375 -16.347656 44.984375 -27.609375 C 44.984375 -33.453125 43.878906 -37.734375 41.671875 -40.453125 C 39.472656 -43.171875 36.285156 -44.53125 32.109375 -44.53125 C 23.523438 -44.53125 19.234375 -38.890625 19.234375 -27.609375 C 19.234375 -16.347656 23.523438 -10.71875 32.109375 -10.71875 Z M 32.109375 -10.71875 "/></g></g></g><g fill="#545454" fill-opacity="1"><g transform="translate(178.112445, 151.557467)"><g><path d="M 29.65625 0 L 15.125 0 L 2 -55.25 L 14.875 -55.25 L 23 -17.890625 L 24.046875 -17.890625 L 34.5625 -55.25 L 46.59375 -55.25 L 57.453125 -17.890625 L 58.515625 -17.890625 L 66.328125 -55.25 L 78.84375 -55.25 L 65.875 0 L 51.296875 0 L 40.828125 -37.625 L 39.78125 -37.625 Z M 29.65625 0 "/></g></g></g><g fill="#545454" fill-opacity="1"><g transform="translate(258.51817, 151.557467)"><g><path d="M 54.609375 -24.5 L 19.09375 -24.5 C 19.488281 -19.6875 20.851562 -16.1875 23.1875 -14 C 25.53125 -11.8125 28.722656 -10.71875 32.765625 -10.71875 C 35.929688 -10.71875 38.5 -11.3125 40.46875 -12.5 C 42.445312 -13.6875 44.035156 -15.484375 45.234375 -17.890625 L 46.28125 -17.890625 L 55.5 -11.96875 C 53.695312 -8.09375 50.972656 -4.953125 47.328125 -2.546875 C 43.691406 -0.148438 38.835938 1.046875 32.765625 1.046875 C 27.054688 1.046875 22.117188 -0.0351562 17.953125 -2.203125 C 13.796875 -4.367188 10.585938 -7.597656 8.328125 -11.890625 C 6.078125 -16.179688 4.953125 -21.421875 4.953125 -27.609375 C 4.953125 -33.878906 6.140625 -39.164062 8.515625 -43.46875 C 10.890625 -47.78125 14.097656 -51 18.140625 -53.125 C 22.179688 -55.25 26.722656 -56.3125 31.765625 -56.3125 C 39.578125 -56.3125 45.5625 -54.238281 49.71875 -50.09375 C 53.875 -45.957031 55.953125 -39.878906 55.953125 -31.859375 C 55.953125 -28.953125 55.851562 -26.695312 55.65625 -25.09375 Z M 42.6875 -33.46875 C 42.550781 -37.675781 41.570312 -40.738281 39.75 -42.65625 C 37.925781 -44.570312 35.265625 -45.53125 31.765625 -45.53125 C 24.742188 -45.53125 20.617188 -41.507812 19.390625 -33.46875 Z M 42.6875 -33.46875 "/></g></g><g transform="translate(318.584503, 151.557467)"><g><path d="M 7.96875 0 L 7.96875 -55.25 L 21.4375 -55.25 L 21.4375 -47.03125 L 22.5 -46.84375 C 23.832031 -49.914062 25.582031 -52.164062 27.75 -53.59375 C 29.925781 -55.03125 32.566406 -55.75 35.671875 -55.75 C 38.804688 -55.75 41.191406 -55.21875 42.828125 -54.15625 L 40.46875 -42.171875 L 39.421875 -41.984375 C 38.523438 -42.347656 37.65625 -42.613281 36.8125 -42.78125 C 35.976562 -42.945312 34.960938 -43.03125 33.765625 -43.03125 C 29.890625 -43.03125 26.929688 -41.664062 24.890625 -38.9375 C 22.859375 -36.21875 21.84375 -31.851562 21.84375 -25.84375 L 21.84375 0 Z M 7.96875 0 "/></g></g></g><g fill="#545454" fill-opacity="1"><g transform="translate(360.465615, 151.557467)"><g><path d="M 54.609375 -24.5 L 19.09375 -24.5 C 19.488281 -19.6875 20.851562 -16.1875 23.1875 -14 C 25.53125 -11.8125 28.722656 -10.71875 32.765625 -10.71875 C 35.929688 -10.71875 38.5 -11.3125 40.46875 -12.5 C 42.445312 -13.6875 44.035156 -15.484375 45.234375 -17.890625 L 46.28125 -17.890625 L 55.5 -11.96875 C 53.695312 -8.09375 50.972656 -4.953125 47.328125 -2.546875 C 43.691406 -0.148438 38.835938 1.046875 32.765625 1.046875 C 27.054688 1.046875 22.117188 -0.0351562 17.953125 -2.203125 C 13.796875 -4.367188 10.585938 -7.597656 8.328125 -11.890625 C 6.078125 -16.179688 4.953125 -21.421875 4.953125 -27.609375 C 4.953125 -33.878906 6.140625 -39.164062 8.515625 -43.46875 C 10.890625 -47.78125 14.097656 -51 18.140625 -53.125 C 22.179688 -55.25 26.722656 -56.3125 31.765625 -56.3125 C 39.578125 -56.3125 45.5625 -54.238281 49.71875 -50.09375 C 53.875 -45.957031 55.953125 -39.878906 55.953125 -31.859375 C 55.953125 -28.953125 55.851562 -26.695312 55.65625 -25.09375 Z M 42.6875 -33.46875 C 42.550781 -37.675781 41.570312 -40.738281 39.75 -42.65625 C 37.925781 -44.570312 35.265625 -45.53125 31.765625 -45.53125 C 24.742188 -45.53125 20.617188 -41.507812 19.390625 -33.46875 Z M 42.6875 -33.46875 "/></g></g><g transform="translate(420.531948, 151.557467)"><g><path d="M 27.296875 1.046875 C 22.921875 1.046875 19.054688 -0.0078125 15.703125 -2.125 C 12.347656 -4.25 9.71875 -7.457031 7.8125 -11.75 C 5.90625 -16.039062 4.953125 -21.328125 4.953125 -27.609375 C 4.953125 -33.910156 5.929688 -39.207031 7.890625 -43.5 C 9.847656 -47.789062 12.550781 -51 16 -53.125 C 19.457031 -55.25 23.457031 -56.3125 28 -56.3125 C 31.4375 -56.3125 34.414062 -55.71875 36.9375 -54.53125 C 39.46875 -53.34375 41.597656 -51.5 43.328125 -49 L 44.390625 -49.25 L 44.390625 -77.453125 L 58.265625 -77.453125 L 58.265625 0 L 44.390625 0 L 44.390625 -7.15625 L 43.328125 -7.359375 C 41.796875 -4.753906 39.691406 -2.703125 37.015625 -1.203125 C 34.347656 0.296875 31.109375 1.046875 27.296875 1.046875 Z M 31.8125 -10.71875 C 35.71875 -10.71875 38.804688 -12.113281 41.078125 -14.90625 C 43.347656 -17.695312 44.484375 -21.929688 44.484375 -27.609375 C 44.484375 -33.285156 43.347656 -37.523438 41.078125 -40.328125 C 38.804688 -43.128906 35.71875 -44.53125 31.8125 -44.53125 C 27.738281 -44.53125 24.625 -43.171875 22.46875 -40.453125 C 20.3125 -37.734375 19.234375 -33.453125 19.234375 -27.609375 C 19.234375 -21.796875 20.3125 -17.523438 22.46875 -14.796875 C 24.625 -12.078125 27.738281 -10.71875 31.8125 -10.71875 Z M 31.8125 -10.71875 "/></g></g><g transform="translate(486.760214, 151.557467)"><g/></g><g transform="translate(510.957076, 151.557467)"><g><path d="M 38.625 1.046875 C 31.570312 1.046875 26.328125 -1.585938 22.890625 -6.859375 L 21.84375 -6.65625 L 21.84375 0 L 7.96875 0 L 7.96875 -77.453125 L 21.84375 -77.453125 L 21.84375 -48.734375 L 22.890625 -48.546875 C 24.796875 -51.179688 27.039062 -53.132812 29.625 -54.40625 C 32.21875 -55.675781 35.316406 -56.3125 38.921875 -56.3125 C 43.398438 -56.3125 47.304688 -55.257812 50.640625 -53.15625 C 53.984375 -51.050781 56.585938 -47.851562 58.453125 -43.5625 C 60.328125 -39.269531 61.265625 -33.953125 61.265625 -27.609375 C 61.265625 -21.328125 60.296875 -16.039062 58.359375 -11.75 C 56.421875 -7.457031 53.75 -4.25 50.34375 -2.125 C 46.9375 -0.0078125 43.03125 1.046875 38.625 1.046875 Z M 34.421875 -10.71875 C 38.492188 -10.71875 41.597656 -12.078125 43.734375 -14.796875 C 45.867188 -17.523438 46.9375 -21.796875 46.9375 -27.609375 C 46.9375 -33.453125 45.867188 -37.734375 43.734375 -40.453125 C 41.597656 -43.171875 38.492188 -44.53125 34.421875 -44.53125 C 30.503906 -44.53125 27.398438 -43.128906 25.109375 -40.328125 C 22.828125 -37.523438 21.6875 -33.285156 21.6875 -27.609375 C 21.6875 -21.929688 22.828125 -17.695312 25.109375 -14.90625 C 27.398438 -12.113281 30.503906 -10.71875 34.421875 -10.71875 Z M 34.421875 -10.71875 "/></g></g></g><g fill="#545454" fill-opacity="1"><g transform="translate(576.083209, 151.557467)"><g><path d="M 12.21875 23.4375 C 9.851562 23.4375 7.707031 23.253906 5.78125 22.890625 C 3.863281 22.523438 2.304688 22.039062 1.109375 21.4375 L 3.3125 10.21875 L 4.203125 9.921875 C 5.035156 10.347656 6.070312 10.695312 7.3125 10.96875 C 8.550781 11.238281 9.820312 11.375 11.125 11.375 C 13.363281 11.375 15.222656 11.082031 16.703125 10.5 C 18.191406 9.914062 19.453125 8.945312 20.484375 7.59375 C 21.523438 6.238281 22.445312 4.359375 23.25 1.953125 L 1.203125 -55.25 L 15.734375 -55.25 L 29.453125 -16.828125 L 30.65625 -16.828125 L 44.03125 -55.25 L 58.15625 -55.25 L 35.96875 3.453125 C 34.195312 8.191406 32.25 12.003906 30.125 14.890625 C 28.007812 17.785156 25.503906 19.929688 22.609375 21.328125 C 19.722656 22.734375 16.257812 23.4375 12.21875 23.4375 Z M 12.21875 23.4375 "/></g></g></g></svg>