<svg xmlns="http://www.w3.org/2000/svg" xmlns:xlink="http://www.w3.org/1999/xlink" width="500" zoomAndPan="magnify" viewBox="0 0 375 374.999991" height="500" preserveAspectRatio="xMidYMid meet" version="1.0"><defs><g/><clipPath id="1bd3d6e961"><path d="M 0 122.339844 L 375 122.339844 L 375 249.660156 L 0 249.660156 Z M 0 122.339844 " clip-rule="nonzero"/></clipPath><clipPath id="35a1860161"><path d="M 0.015625 122.339844 L 374.984375 122.339844 L 374.984375 249.652344 L 0.015625 249.652344 Z M 0.015625 122.339844 " clip-rule="nonzero"/></clipPath></defs><g clip-path="url(#1bd3d6e961)"><path fill="#000000" d="M 0 122.339844 L 375.007812 122.339844 L 375.007812 249.660156 L 0 249.660156 Z M 0 122.339844 " fill-opacity="1" fill-rule="nonzero"/></g><g clip-path="url(#35a1860161)"><path stroke-linecap="butt" transform="matrix(0.75, 0, 0, 0.75, 0.01676, 122.33805)" fill="none" stroke-linejoin="miter" d="M -0.00151328 0.00239118 L 499.956853 0.00239118 L 499.956853 169.752402 L -0.00151328 169.752402 Z M -0.00151328 0.00239118 " stroke="#000000" stroke-width="8" stroke-opacity="1" stroke-miterlimit="4"/></g><g fill="#ffffff" fill-opacity="1"><g transform="translate(21.980531, 210.880755)"><g><path d="M 38.0625 -62.53125 L 45.53125 -29.109375 L 64.1875 -62.53125 L 80.359375 -62.53125 L 79.953125 0 L 63.703125 0 L 64.859375 -36 L 64.6875 -36 L 43.953125 0 L 37.484375 0 L 28.859375 -36 L 28.703125 -36 L 17.75 0 L 1.578125 0 L 22.0625 -62.53125 Z M 38.0625 -62.53125 "/></g></g></g><g fill="#ffffff" fill-opacity="1"><g transform="translate(94.707222, 210.880755)"><g><path d="M 31.4375 -62.53125 L 55.15625 -24.296875 L 55.3125 -24.296875 L 61.375 -62.53125 L 77.625 -62.53125 L 67.765625 0 L 51.5 0 L 27.78125 -38.3125 L 27.625 -38.3125 L 21.5625 0 L 5.3125 0 L 15.171875 -62.53125 Z M 31.4375 -62.53125 "/></g></g></g><g fill="#ffffff" fill-opacity="1"><g transform="translate(158.975281, 210.880755)"><g><path d="M 31.4375 -62.53125 L 55.15625 -24.296875 L 55.3125 -24.296875 L 61.375 -62.53125 L 77.625 -62.53125 L 67.765625 0 L 51.5 0 L 27.78125 -38.3125 L 27.625 -38.3125 L 21.5625 0 L 5.3125 0 L 15.171875 -62.53125 Z M 31.4375 -62.53125 "/></g></g></g><path stroke-linecap="butt" transform="matrix(1.555048, 0, 0, 1.555048, 221.926879, 128.463215)" fill="none" stroke-linejoin="miter" d="M 35.571449 26.86919 C 34.539025 22.598824 31.924054 20.46364 27.731558 20.46364 C 25.528552 20.46364 23.45868 21.184579 21.521943 22.623943 C 19.585206 24.06582 18.045362 25.969901 16.899899 28.341211 C 15.761972 30.699961 15.194264 33.10895 15.194264 35.565667 C 15.194264 38.622747 15.993074 41.081976 17.590693 42.948377 C 19.195849 44.814779 21.348616 45.746724 24.048995 45.746724 C 26.5032 45.746724 28.565536 45.126264 30.233491 43.885346 C 31.908982 42.636892 33.009229 40.926233 33.539257 38.755882 L 25.011084 38.755882 L 26.339921 30.554266 L 47.093904 30.554266 C 46.164471 36.168542 44.607043 40.6047 42.419108 43.860226 C 40.231173 47.105705 37.457947 49.662901 34.099429 51.529303 C 30.740911 53.395704 26.912653 54.327649 22.614654 54.327649 C 17.068201 54.327649 12.616972 52.765197 9.258454 49.640293 C 5.897424 46.51539 4.219421 42.335454 4.219421 37.102999 C 4.219421 32.518634 5.299573 28.258316 7.459876 24.317018 C 9.630227 20.368185 12.669724 17.238257 16.573341 14.929747 C 20.489519 12.611189 24.885485 11.453166 29.763751 11.453166 C 38.26178 11.453166 43.717802 15.203553 46.129303 22.701815 Z M 64.898821 12.794564 C 68.526121 12.794564 71.434994 13.648637 73.622929 15.359296 C 75.808352 17.059907 76.903576 19.509088 76.903576 22.701815 C 76.903576 26.123132 75.886224 29.137509 73.856543 31.75248 C 71.834399 34.36494 69.239523 35.952512 66.069404 36.517707 L 76.094718 52.998811 L 63.087683 52.998811 L 55.679853 37.532547 L 55.56179 37.532547 L 53.115121 52.998811 L 42.660258 52.998811 L 49.013057 12.794564 Z M 56.629382 30.813 L 58.076282 30.813 C 60.532999 30.813 62.432056 30.298044 63.778478 29.26562 C 65.132435 28.230684 65.81067 26.720984 65.81067 24.734007 C 65.81067 22.103964 63.640319 20.787686 59.299617 20.787686 L 58.232025 20.787686 Z M 56.629382 30.813 " stroke="#000000" stroke-width="5.399997" stroke-opacity="1" stroke-miterlimit="4"/><g fill="#ffffff" fill-opacity="1"><g transform="translate(221.926879, 210.880755)"><g><path d="M 55.3125 -40.640625 C 53.71875 -47.273438 49.65625 -50.59375 43.125 -50.59375 C 39.695312 -50.59375 36.472656 -49.472656 33.453125 -47.234375 C 30.441406 -44.992188 28.050781 -42.035156 26.28125 -38.359375 C 24.519531 -34.679688 23.640625 -30.9375 23.640625 -27.125 C 23.640625 -22.363281 24.878906 -18.53125 27.359375 -15.625 C 29.847656 -12.726562 33.195312 -11.28125 37.40625 -11.28125 C 41.21875 -11.28125 44.421875 -12.242188 47.015625 -14.171875 C 49.617188 -16.109375 51.335938 -18.765625 52.171875 -22.140625 L 38.890625 -22.140625 L 40.96875 -34.921875 L 73.234375 -34.921875 C 71.796875 -26.179688 69.375 -19.28125 65.96875 -14.21875 C 62.570312 -9.164062 58.257812 -5.1875 53.03125 -2.28125 C 47.8125 0.625 41.859375 2.078125 35.171875 2.078125 C 26.546875 2.078125 19.617188 -0.351562 14.390625 -5.21875 C 9.160156 -10.09375 6.546875 -16.59375 6.546875 -24.71875 C 6.546875 -31.851562 8.234375 -38.488281 11.609375 -44.625 C 14.984375 -50.757812 19.710938 -55.625 25.796875 -59.21875 C 31.878906 -62.8125 38.707031 -64.609375 46.28125 -64.609375 C 59.488281 -64.609375 67.972656 -58.773438 71.734375 -47.109375 Z M 55.3125 -40.640625 "/></g></g></g><g fill="#ffffff" fill-opacity="1"><g transform="translate(282.960765, 210.880755)"><g><path d="M 39.890625 -62.53125 C 45.535156 -62.53125 50.054688 -61.203125 53.453125 -58.546875 C 56.847656 -55.898438 58.546875 -52.085938 58.546875 -47.109375 C 58.546875 -41.796875 56.96875 -37.109375 53.8125 -33.046875 C 50.664062 -28.984375 46.632812 -26.507812 41.71875 -25.625 L 57.3125 0 L 37.078125 0 L 25.546875 -24.046875 L 25.375 -24.046875 L 21.5625 0 L 5.3125 0 L 15.171875 -62.53125 Z M 27.03125 -34.5 L 29.28125 -34.5 C 33.09375 -34.5 36.046875 -35.300781 38.140625 -36.90625 C 40.242188 -38.507812 41.296875 -40.859375 41.296875 -43.953125 C 41.296875 -48.046875 37.925781 -50.09375 31.1875 -50.09375 L 29.53125 -50.09375 Z M 27.03125 -34.5 "/></g></g></g></svg>